<svg width="96" height="110" viewBox="0 0 96 110" fill="none" xmlns="http://www.w3.org/2000/svg">
<path d="M96 15.7143V25.5357C96 34.1909 74.5001 41.25 48 41.25C21.4999 41.25 0 34.1909 0 25.5357V15.7143C0 7.05912 21.4999 0 48 0C74.5001 0 96 7.05912 96 15.7143ZM96 37.8125V59.9107C96 68.5659 74.5001 75.625 48 75.625C21.4999 75.625 0 68.5659 0 59.9107V37.8125C10.3125 44.9331 29.1874 48.2479 48 48.2479C66.8126 48.2479 85.6873 44.9331 96 37.8125ZM96 72.1875V94.2857C96 102.941 74.5001 110 48 110C21.4999 110 0 102.941 0 94.2857V72.1875C10.3125 79.3081 29.1874 82.6229 48 82.6229C66.8126 82.6229 85.6873 79.3081 96 72.1875Z" fill="#F0D43A"/>
</svg>
