<svg width="104" height="83" viewBox="0 0 104 83" fill="none" xmlns="http://www.w3.org/2000/svg">
<g clip-path="url(#clip0)">
<path d="M78.0114 15.5625H26C21.7131 15.5619 17.4926 16.6187 13.7142 18.6389C9.93576 20.6591 6.7167 23.58 4.34357 27.1415C1.97044 30.7031 0.516891 34.7947 0.112324 39.0522C-0.292242 43.3097 0.364729 47.6009 2.02475 51.5438C3.68477 55.4868 6.29633 58.959 9.62692 61.6515C12.9575 64.344 16.9038 66.1732 21.1144 66.9762C25.3251 67.7792 29.6694 67.5311 33.7607 66.2539C37.8519 64.9768 41.5632 62.7103 44.564 59.6562H59.436C62.4365 62.71 66.1472 64.9763 70.238 66.2535C74.3287 67.5307 78.6725 67.7792 82.8828 66.9767C87.093 66.1743 91.0391 64.3459 94.3698 61.6542C97.7004 58.9626 100.312 55.4912 101.973 51.5491C103.634 47.607 104.292 43.3164 103.888 39.0593C103.485 34.8021 102.033 30.7105 99.6611 27.1486C97.2895 23.5867 94.0718 20.6651 90.2946 18.6436C86.5174 16.6222 82.2978 15.5638 78.0114 15.5625V15.5625ZM40.3 43.4453C40.3 43.9612 40.0945 44.456 39.7289 44.8209C39.3632 45.1857 38.8672 45.3906 38.35 45.3906H29.9V53.8203C29.9 54.3362 29.6945 54.831 29.3289 55.1959C28.9632 55.5607 28.4672 55.7656 27.95 55.7656H24.05C23.5328 55.7656 23.0368 55.5607 22.6711 55.1959C22.3054 54.831 22.1 54.3362 22.1 53.8203V45.3906H13.65C13.1328 45.3906 12.6368 45.1857 12.2711 44.8209C11.9054 44.456 11.7 43.9612 11.7 43.4453V39.5547C11.7 39.0388 11.9054 38.544 12.2711 38.1791C12.6368 37.8143 13.1328 37.6094 13.65 37.6094H22.1V29.1797C22.1 28.6638 22.3054 28.169 22.6711 27.8041C23.0368 27.4393 23.5328 27.2344 24.05 27.2344H27.95C28.4672 27.2344 28.9632 27.4393 29.3289 27.8041C29.6945 28.169 29.9 28.6638 29.9 29.1797V37.6094H38.35C38.8672 37.6094 39.3632 37.8143 39.7289 38.1791C40.0945 38.544 40.3 39.0388 40.3 39.5547V43.4453ZM75.4 55.7656C74.1144 55.7656 72.8577 55.3853 71.7888 54.6728C70.7199 53.9603 69.8867 52.9476 69.3948 51.7627C68.9028 50.5778 68.7741 49.2741 69.0249 48.0162C69.2757 46.7584 69.8948 45.603 70.8038 44.6961C71.7128 43.7892 72.871 43.1717 74.1319 42.9215C75.3928 42.6713 76.6997 42.7997 77.8874 43.2905C79.0752 43.7813 80.0903 44.6124 80.8045 45.6787C81.5188 46.7451 81.9 47.9988 81.9 49.2812C81.9 51.001 81.2152 52.6503 79.9962 53.8664C78.7772 55.0825 77.1239 55.7656 75.4 55.7656V55.7656ZM85.8 40.2031C84.5144 40.2031 83.2577 39.8228 82.1888 39.1103C81.1199 38.3978 80.2867 37.3851 79.7948 36.2002C79.3028 35.0153 79.1741 33.7116 79.4249 32.4537C79.6757 31.1959 80.2948 30.0405 81.2038 29.1336C82.1128 28.2267 83.271 27.6092 84.5319 27.359C85.7928 27.1088 87.0997 27.2372 88.2874 27.728C89.4752 28.2188 90.4903 29.0499 91.2045 30.1162C91.9188 31.1826 92.3 32.4363 92.3 33.7188C92.3 35.4385 91.6152 37.0878 90.3962 38.3039C89.1772 39.52 87.5239 40.2031 85.8 40.2031Z" fill="#F0D43A"/>
</g>
<defs>
<clipPath id="clip0">
<rect width="104" height="83" fill="white"/>
</clipPath>
</defs>
</svg>
