<svg width="102" height="102" viewBox="0 0 102 102" fill="none" xmlns="http://www.w3.org/2000/svg">
<path d="M60.4044 0.8772C60.4044 0.8568 60.384 0.8568 60.384 0.8568L60.3636 0.8772C57.324 0.306 54.1824 0 51 0C47.8176 0 44.676 0.306 41.6568 0.8772L41.6364 0.8568L41.616 0.8772C17.9316 5.2836 0 26.0304 0 51C0 79.1724 22.848 102 51 102C79.1724 102 102 79.152 102 51C102 26.0304 84.0684 5.2836 60.4044 0.8772ZM6.8544 54.57H27.3768C27.6216 59.9148 28.356 65.5656 29.7024 71.4204H11.7096C9.0576 66.3 7.344 60.6084 6.8544 54.57ZM27.336 47.1036H6.8952C7.4052 41.1876 9.0984 35.598 11.7096 30.5796H29.4372C28.3356 35.598 27.5604 41.1264 27.336 47.1036ZM36.3936 30.5796H65.4432C66.6264 35.5164 67.4628 41.0652 67.6668 47.1036H34.17C34.374 41.0448 35.2104 35.5164 36.3936 30.5796ZM34.2516 54.57H67.6056C67.32 59.8944 66.5448 65.5452 65.0556 71.4204H36.8832C35.3328 65.5248 34.5168 59.8944 34.2516 54.57ZM74.6232 54.57H95.1456C94.656 60.6084 92.9424 66.3 90.2904 71.4204H72.2976C73.644 65.5656 74.3784 59.9352 74.6232 54.57ZM74.664 47.1036C74.46 41.1468 73.6644 35.598 72.5628 30.5796H90.2904C92.922 35.598 94.5948 41.1876 95.1048 47.1036H74.664ZM85.374 23.1132H70.6452C68.9112 17.4216 66.8916 12.648 65.076 8.9964C73.1136 11.7096 80.1312 16.6464 85.374 23.1132ZM55.998 6.9768C57.7116 9.7512 60.7308 15.3408 63.3216 23.0928H38.5152C41.1264 15.3612 44.2272 9.8124 45.9612 6.9768C47.6136 6.7932 49.3068 6.6708 50.9796 6.6708C52.6728 6.7116 54.366 6.8136 55.998 6.9768ZM36.924 8.9964C35.1288 12.648 33.0888 17.3808 31.3752 23.0928H16.6056C21.8688 16.6464 28.8864 11.7096 36.924 8.9964ZM16.626 78.9072H31.7628C33.252 83.5584 35.1288 88.332 37.4952 93.2076C29.2128 90.5556 22.0116 85.4964 16.626 78.9072ZM46.41 95.064C43.35 89.5356 40.9428 84.1296 39.1068 78.9072H62.7912C60.9756 84.1296 58.6092 89.5356 55.5492 95.064C54.0396 95.2272 52.5096 95.2884 50.9592 95.2884C49.4496 95.2884 47.9196 95.2272 46.41 95.064ZM64.4844 93.2076C66.8508 88.332 68.748 83.5788 70.2168 78.9072H85.3536C79.9884 85.4964 72.7872 90.5556 64.4844 93.2076Z" fill="#F0D43A"/>
</svg>
