<svg width="478" height="393" viewBox="0 0 478 393" fill="none" xmlns="http://www.w3.org/2000/svg">
<g clip-path="url(#clip0)">
<path d="M478 225.835C317.75 165.058 158.393 163.498 0 225.835V0H478V225.835Z" fill="#3F3D56"/>
<path d="M111.152 14.3236H17.1736V18.6207H111.152V14.3236Z" fill="#D0CDE1"/>
<path d="M111.152 25.3049H17.1736V29.602H111.152V25.3049Z" fill="#D0CDE1"/>
<path d="M111.152 36.2864H17.1736V40.5835H111.152V36.2864Z" fill="#D0CDE1"/>
<path d="M42.4571 54.4296H32.9161V63.9786H42.4571V54.4296Z" fill="#D0CDE1"/>
<path d="M69.1717 54.4296H59.6307V63.9786H69.1717V54.4296Z" fill="#3B4A6B"/>
<path d="M95.8862 54.4296H86.3453V63.9786H95.8862V54.4296Z" fill="#FF6584"/>
<path d="M104.473 90.2385H24.3293V104.026H104.473V90.2385Z" fill="#D0CDE1"/>
<path d="M104.473 111.395H24.3293V125.183H104.473V111.395Z" fill="#3B4A6B"/>
<path d="M104.473 132.552H24.3293V146.339H104.473V132.552Z" fill="#FF6584"/>
<path opacity="0.15" d="M57.484 90.2385H24.3293V104.026H57.484V90.2385Z" fill="black"/>
<path opacity="0.15" d="M35.0629 111.395H24.3293V125.183H35.0629V111.395Z" fill="black"/>
<path opacity="0.15" d="M77.7585 132.552H24.3293V146.339H77.7585V132.552Z" fill="black"/>
<path d="M234.707 10.9814V168.541C255.582 168.541 275.603 160.241 290.365 145.467C305.126 130.693 313.419 110.655 313.419 89.7611C313.419 68.8674 305.126 48.8295 290.365 34.0555C275.603 19.2814 255.582 10.9814 234.707 10.9814V10.9814Z" fill="#D0CDE1"/>
<path d="M229.459 14.4447C216.045 14.4419 202.894 18.1741 191.477 25.2239C180.061 32.2737 170.829 42.3632 164.814 54.364L229.459 92.6623V14.4447Z" fill="#D0CDE1"/>
<path d="M159.567 55.3906C153.553 67.4031 150.707 80.7552 151.301 94.1784C151.894 107.602 155.907 120.65 162.958 132.084C170.01 143.517 179.865 152.957 191.588 159.505C203.31 166.053 216.511 169.492 229.936 169.496V97.0804L159.567 55.3906Z" fill="#3B4A6B"/>
<path d="M414.553 52.0424H366.371V56.3394H414.553V52.0424Z" fill="#D0CDE1"/>
<path d="M360.17 49.1776H350.629V58.7267H360.17V49.1776Z" fill="#3B4A6B"/>
<path d="M414.553 66.3658H366.371V70.6629H414.553V66.3658Z" fill="#D0CDE1"/>
<path d="M360.17 63.5012H350.629V73.0503H360.17V63.5012Z" fill="#3B4A6B"/>
<path d="M414.553 80.6895H366.371V84.9865H414.553V80.6895Z" fill="#D0CDE1"/>
<path d="M360.17 77.8247H350.629V87.3737H360.17V77.8247Z" fill="#3B4A6B"/>
<path d="M209.283 119.701L208.609 119.026L258.838 68.7532H346.335V69.7081H259.233L209.283 119.701Z" fill="#2F2E41"/>
<path d="M478 349.495H0V241.113C153.609 181.208 312.942 181.208 478 241.113V349.495Z" fill="#3F3D56"/>
<path d="M196.449 288.802L200.808 302.305C200.808 302.305 196.864 314.977 198.732 329.104C200.6 343.23 199.562 343.645 199.562 343.645C199.562 343.645 180.897 342.57 182.765 348.179C184.633 353.788 202.883 350.501 202.883 350.501C202.883 350.501 206.388 349.556 208.049 339.585C209.709 329.613 213.884 310.407 213.884 310.407L209.958 292.276L196.449 288.802Z" fill="#FFB8B8"/>
<path d="M197.902 261.172C197.902 261.172 190.014 264.081 190.014 271.975C190.014 279.869 192.92 290.671 194.788 291.295C196.656 291.918 209.11 300.435 211.393 294.411C213.677 288.386 197.902 261.172 197.902 261.172Z" fill="#D0CDE1"/>
<path d="M263.907 354.655L280.512 354.032L293.173 352.163L289.437 364.627L258.718 365.458L263.907 354.655Z" fill="#FFB8B8"/>
<path d="M287.777 356.318C287.777 356.318 287.569 351.747 285.701 351.955C283.833 352.163 285.078 350.293 286.739 349.878C288.399 349.462 293.173 347.385 293.173 347.385L312.062 348.631C312.062 348.631 324.308 359.434 319.326 365.25C314.345 371.067 301.476 365.874 301.476 365.874L287.569 366.081C287.569 366.081 283.003 358.603 287.777 356.318Z" fill="#2F2E41"/>
<path d="M295.249 340.321L301.268 368.574L313.722 366.081L306.665 330.766L299.193 326.819L295.249 340.321Z" fill="#FFB8B8"/>
<path d="M223.64 336.79C223.64 336.79 188.769 352.578 203.506 368.574C203.506 368.574 203.506 376.053 219.073 374.599C234.641 373.145 264.737 370.444 266.19 371.275C267.643 372.106 272.209 354.863 268.266 354.032C264.322 353.201 259.548 352.163 259.548 352.163C259.548 352.163 263.699 351.54 263.699 348.008C263.699 348.008 275.53 347.177 279.059 339.698C282.588 332.22 285.909 326.611 285.909 326.611L294.004 347.385C294.004 347.385 303.344 330.142 310.401 337.829C310.401 337.829 302.514 288.179 296.494 283.609C290.475 279.038 286.324 277.584 280.72 281.739C275.115 285.894 269.926 296.488 269.926 296.488L223.64 336.79Z" fill="#2F2E41"/>
<path d="M306.873 360.057C305.421 361.152 304.035 362.332 302.721 363.588C301.061 365.25 298.778 364.419 298.57 363.588C298.362 362.757 294.626 364.212 294.211 370.236C293.796 376.261 291.305 381.662 297.947 383.532C304.589 385.401 304.382 390.802 304.382 390.802C309.637 393.326 315.669 393.698 321.194 391.841C330.535 388.725 327.214 385.401 327.214 385.401L314.76 364.835C314.76 364.835 311.439 358.603 306.873 360.057Z" fill="#2F2E41"/>
<path d="M272.417 257.018C272.417 257.018 292.343 263.873 294.419 265.327C296.494 266.781 305.835 273.637 301.268 277.168C296.702 280.7 292.966 282.985 284.041 280.285C275.115 277.584 265.152 269.274 265.152 269.274L272.417 257.018Z" fill="#FFB8B8"/>
<path d="M252.491 247.877C252.491 247.877 260.378 246.423 265.983 249.539C271.587 252.655 276.361 258.887 276.361 258.887C276.361 258.887 271.172 269.897 267.436 271.559C263.699 273.221 256.85 264.912 256.85 264.912L252.491 247.877Z" fill="#D0CDE1"/>
<path d="M216.167 241.853C216.167 241.853 216.375 249.955 215.545 250.785C214.714 251.616 225.508 276.13 237.339 265.327C249.17 254.525 240.037 250.162 240.037 250.162C240.037 250.162 235.678 242.06 235.886 241.229C236.093 240.398 216.582 241.229 216.582 241.229L216.167 241.853Z" fill="#FFB8B8"/>
<path opacity="0.1" d="M216.167 241.853C216.167 241.853 216.375 249.955 215.545 250.785C214.714 251.616 225.508 276.13 237.339 265.327C249.17 254.525 240.037 250.162 240.037 250.162C240.037 250.162 235.678 242.06 235.886 241.229C236.093 240.398 216.582 241.229 216.582 241.229L216.167 241.853Z" fill="black"/>
<path d="M219.488 257.433C219.488 257.433 227.376 262.834 230.697 261.588C234.018 260.341 238.169 254.94 238.584 254.525C238.999 254.109 260.171 296.696 260.171 296.696C260.171 296.696 257.057 312.277 248.755 316.847C240.452 321.417 240.556 325.053 239.518 328.169C238.48 331.285 225.093 318.301 225.093 318.301L216.583 282.154V260.134L219.488 257.433Z" fill="#D0CDE1"/>
<path d="M216.064 247.773C216.064 247.773 213.469 247.254 210.771 249.539C208.072 251.824 195.411 260.342 196.034 261.173C196.656 262.004 202.261 273.845 203.506 278.623C204.751 283.401 206.619 284.024 206.619 284.024C206.619 284.024 210.978 287.14 210.356 289.425C209.733 291.71 207.035 322.871 210.771 329.727C214.507 336.582 213.884 342.607 212.846 344.269C211.809 345.931 222.809 339.491 222.809 339.491C222.809 339.491 239.207 326.195 240.452 322.248C241.258 319.535 241.813 316.753 242.113 313.939C242.113 313.939 231.527 271.975 228.206 269.69C224.885 267.405 216.064 247.773 216.064 247.773Z" fill="#575A89"/>
<path d="M238.866 247.938C238.866 247.938 243.981 244.761 245.019 245.592C246.056 246.423 255.812 246.423 256.02 247.254C256.227 248.085 256.642 268.028 263.699 273.221C270.756 278.415 266.19 288.802 266.19 288.802L271.379 297.112C271.379 297.112 243.151 324.323 245.019 314.977C245.122 314.458 245.019 314.354 245.019 314.354C245.019 314.354 234.018 267.197 235.471 264.704C236.924 262.211 239.564 250.906 238.866 247.938Z" fill="#575A89"/>
<path d="M282.38 266.989L254.151 276.753C254.151 276.753 226.13 283.401 230.489 291.087C234.848 298.774 253.321 285.686 253.321 285.686L290.912 281.47C290.912 281.47 305.835 268.859 282.38 266.989Z" fill="#FFB8B8"/>
<path d="M227.376 249.539C235.859 249.539 242.736 242.656 242.736 234.166C242.736 225.676 235.859 218.793 227.376 218.793C218.893 218.793 212.016 225.676 212.016 234.166C212.016 242.656 218.893 249.539 227.376 249.539Z" fill="#FFB8B8"/>
<path d="M215.144 218.889L212.303 217.854C212.303 217.854 218.243 211.909 226.509 212.426L224.184 210.099C224.184 210.099 229.867 208.031 235.032 213.46C237.748 216.314 240.89 219.668 242.849 223.447H245.891L244.621 225.989L249.066 228.531L244.504 228.074C244.936 230.269 244.788 232.538 244.073 234.658L243.039 237.501C243.039 237.501 238.907 229.229 238.907 228.195V230.78C238.907 230.78 236.066 228.454 236.066 226.902L234.516 228.712L233.741 225.868L224.184 228.712L225.734 226.385L219.793 227.161L222.118 224.317C222.118 224.317 215.402 227.678 215.144 230.522C214.886 233.365 211.528 236.984 211.528 236.984L209.978 234.399C209.978 234.399 207.653 222.766 215.144 218.889Z" fill="#2F2E41"/>
<path d="M415.539 350.428L414.585 350.409C414.954 339.792 416.086 329.215 417.972 318.76C422.098 296.377 428.958 281.676 438.362 275.068L438.91 275.849C416.941 291.287 415.55 349.838 415.539 350.428Z" fill="#D0CDE1"/>
<path d="M427.465 350.199L426.511 350.18C426.532 349.123 427.128 324.2 436.931 317.312L437.479 318.093C428.071 324.704 427.47 349.945 427.465 350.199Z" fill="#D0CDE1"/>
<path d="M444.338 275.936C446.973 275.936 449.108 273.798 449.108 271.161C449.108 268.524 446.973 266.387 444.338 266.387C441.703 266.387 439.567 268.524 439.567 271.161C439.567 273.798 441.703 275.936 444.338 275.936Z" fill="#3B4A6B"/>
<path d="M441.976 316.997C444.61 316.997 446.746 314.859 446.746 312.222C446.746 309.585 444.61 307.448 441.976 307.448C439.341 307.448 437.205 309.585 437.205 312.222C437.205 314.859 439.341 316.997 441.976 316.997Z" fill="#3B4A6B"/>
<path d="M425.242 278.798C426.138 284.529 423.801 289.655 423.801 289.655C423.801 289.655 420.011 285.489 419.115 279.758C418.218 274.027 420.555 268.9 420.555 268.9C420.555 268.9 424.345 273.067 425.242 278.798Z" fill="#3B4A6B"/>
<path d="M440.82 292.674C435.337 294.556 429.894 293.167 429.894 293.167C429.894 293.167 433.34 288.727 438.822 286.845C444.305 284.963 449.748 286.351 449.748 286.351C449.748 286.351 446.303 290.791 440.82 292.674Z" fill="#D0CDE1"/>
<path d="M441.011 329.081C438.53 329.861 435.887 329.975 433.348 329.412C434.96 327.357 437.132 325.813 439.601 324.966C442.07 324.118 444.731 324.003 447.264 324.634C445.605 326.639 443.448 328.172 441.011 329.081V329.081Z" fill="#D0CDE1"/>
<path d="M384.491 264.669C383.265 264.669 382.066 264.305 381.046 263.623C380.026 262.941 379.231 261.971 378.762 260.837C378.293 259.703 378.17 258.455 378.409 257.251C378.648 256.047 379.239 254.941 380.106 254.073C380.974 253.205 382.079 252.614 383.282 252.374C384.485 252.135 385.732 252.258 386.865 252.727C387.998 253.197 388.966 253.993 389.648 255.013C390.329 256.034 390.693 257.234 390.693 258.462C390.691 260.107 390.037 261.685 388.875 262.849C387.712 264.012 386.136 264.667 384.491 264.669V264.669ZM384.491 253.21C383.454 253.21 382.439 253.518 381.576 254.095C380.713 254.672 380.041 255.492 379.643 256.452C379.246 257.412 379.142 258.468 379.345 259.486C379.547 260.505 380.047 261.441 380.781 262.175C381.515 262.91 382.45 263.41 383.468 263.613C384.486 263.815 385.541 263.711 386.5 263.314C387.458 262.916 388.278 262.243 388.855 261.38C389.431 260.516 389.739 259.501 389.739 258.462C389.737 257.069 389.184 255.734 388.2 254.75C387.217 253.765 385.883 253.211 384.491 253.21V253.21Z" fill="#D0CDE1"/>
<path d="M355.399 296.975C357.507 296.975 359.216 295.265 359.216 293.156C359.216 291.046 357.507 289.336 355.399 289.336C353.291 289.336 351.583 291.046 351.583 293.156C351.583 295.265 353.291 296.975 355.399 296.975Z" fill="#D0CDE1"/>
<path d="M17.1737 253.527C19.2814 253.527 20.99 251.817 20.99 249.708C20.99 247.598 19.2814 245.888 17.1737 245.888C15.0659 245.888 13.3573 247.598 13.3573 249.708C13.3573 251.817 15.0659 253.527 17.1737 253.527Z" fill="#D0CDE1"/>
<path d="M41.0259 313.686H28.6227V301.272H41.0259V313.686ZM29.5768 312.731H40.0718V302.227H29.5768V312.731Z" fill="#D0CDE1"/>
<path d="M119.739 269.761C115.021 269.761 110.409 271.161 106.487 273.784C102.564 276.407 99.5072 280.136 97.7019 284.498C95.8966 288.86 95.4242 293.66 96.3446 298.291C97.2649 302.922 99.5366 307.175 102.872 310.514C106.208 313.852 110.458 316.126 115.085 317.047C119.712 317.968 124.508 317.496 128.866 315.689C133.225 313.882 136.95 310.822 139.571 306.896C142.192 302.97 143.591 298.355 143.591 293.633C143.591 287.302 141.078 281.23 136.605 276.753C132.132 272.276 126.065 269.761 119.739 269.761ZM115.624 304.316L105.364 294.048L108.242 291.167L115.634 298.565L131.235 282.95L134.113 285.831L115.624 304.316Z" fill="#3B4A6B"/>
</g>
<defs>
<clipPath id="clip0">
<rect width="478" height="393" fill="white"/>
</clipPath>
</defs>
</svg>
