<svg width="551" height="302" viewBox="0 0 551 302" fill="none" xmlns="http://www.w3.org/2000/svg">
<path d="M548.677 0.246216H113.24V278.361H548.677V0.246216Z" fill="#E6E6E6"/>
<path d="M308.943 37.5924H151.744V198.684H308.943V37.5924Z" fill="white"/>
<path d="M524.936 40.7165H367.737V236.372H524.936V40.7165Z" fill="white"/>
<path d="M522.84 298.582C538.393 298.582 551 296.786 551 294.57C551 292.354 538.393 290.558 522.84 290.558C507.288 290.558 494.681 292.354 494.681 294.57C494.681 296.786 507.288 298.582 522.84 298.582Z" fill="#E6E6E6"/>
<path d="M241.305 298.672C256.858 298.672 269.465 296.875 269.465 294.66C269.465 292.444 256.858 290.648 241.305 290.648C225.753 290.648 213.146 292.444 213.146 294.66C213.146 296.875 225.753 298.672 241.305 298.672Z" fill="#E6E6E6"/>
<path d="M64.6277 293.734C100.321 293.734 129.255 292.352 129.255 290.648C129.255 288.944 100.321 287.562 64.6277 287.562C28.9348 287.562 0 288.944 0 290.648C0 292.352 28.9348 293.734 64.6277 293.734Z" fill="#E6E6E6"/>
<path d="M548.491 0H113.054V18.4487H548.491V0Z" fill="#F0D43A"/>
<path d="M126.801 12.8512C128.695 12.8512 130.23 11.3203 130.23 9.43189C130.23 7.54345 128.695 6.01257 126.801 6.01257C124.907 6.01257 123.372 7.54345 123.372 9.43189C123.372 11.3203 124.907 12.8512 126.801 12.8512Z" fill="#E6E6E6"/>
<path d="M139.815 12.8512C141.709 12.8512 143.244 11.3203 143.244 9.43189C143.244 7.54345 141.709 6.01257 139.815 6.01257C137.922 6.01257 136.387 7.54345 136.387 9.43189C136.387 11.3203 137.922 12.8512 139.815 12.8512Z" fill="#E6E6E6"/>
<path d="M152.83 12.8512C154.723 12.8512 156.258 11.3203 156.258 9.43189C156.258 7.54345 154.723 6.01257 152.83 6.01257C150.936 6.01257 149.401 7.54345 149.401 9.43189C149.401 11.3203 150.936 12.8512 152.83 12.8512Z" fill="#E6E6E6"/>
<path d="M490.278 93.1977H489.325V67.182C489.325 65.2047 488.935 63.2467 488.176 61.4199C487.417 59.593 486.305 57.9331 484.903 56.535C483.501 55.1368 481.837 54.0276 480.005 53.271C478.173 52.5143 476.21 52.1248 474.227 52.1248H418.959C416.976 52.1248 415.013 52.5143 413.181 53.271C411.349 54.0276 409.685 55.1368 408.283 56.535C406.881 57.9331 405.769 59.593 405.01 61.4199C404.251 63.2467 403.861 65.2047 403.861 67.182V209.906C403.861 211.883 404.251 213.841 405.01 215.668C405.769 217.495 406.881 219.155 408.283 220.553C409.685 221.951 411.349 223.06 413.181 223.817C415.013 224.574 416.976 224.963 418.959 224.963H474.227C476.21 224.963 478.173 224.574 480.005 223.817C481.837 223.06 483.501 221.951 484.903 220.553C486.305 219.155 487.417 217.495 488.176 215.668C488.935 213.841 489.325 211.883 489.325 209.906V111.716H490.278V93.1977Z" fill="#3F3D56"/>
<path d="M474.217 56.0422H467.003C467.335 56.8533 467.462 57.7334 467.372 58.6049C467.282 59.4764 466.979 60.3125 466.489 61.0396C465.999 61.7668 465.337 62.3625 464.562 62.7745C463.787 63.1865 462.922 63.402 462.043 63.4021H430.381C429.503 63.402 428.638 63.1865 427.862 62.7745C427.087 62.3625 426.425 61.7667 425.935 61.0396C425.446 60.3125 425.142 59.4764 425.053 58.6049C424.963 57.7334 425.09 56.8533 425.421 56.0422H418.683C417.203 56.0422 415.736 56.333 414.368 56.8981C413 57.4632 411.758 58.2915 410.711 59.3356C409.664 60.3798 408.833 61.6193 408.266 62.9836C407.7 64.3478 407.408 65.81 407.408 67.2867V209.801C407.408 211.278 407.7 212.74 408.266 214.104C408.833 215.469 409.664 216.708 410.711 217.752C411.758 218.797 413 219.625 414.368 220.19C415.736 220.755 417.203 221.046 418.683 221.046H474.217C475.698 221.046 477.164 220.755 478.532 220.19C479.9 219.625 481.143 218.797 482.19 217.752C483.237 216.708 484.068 215.469 484.634 214.104C485.201 212.74 485.493 211.278 485.493 209.801V67.2867C485.493 64.3044 484.305 61.4444 482.19 59.3356C480.076 57.2268 477.208 56.0422 474.217 56.0422V56.0422Z" fill="white"/>
<path d="M285.083 139.351H175.821V144.321H285.083V139.351Z" fill="#E6E6E6"/>
<path d="M285.083 155.398H175.821V160.368H285.083V155.398Z" fill="#F0D43A"/>
<path d="M285.083 171.445H175.821V176.416H285.083V171.445Z" fill="#E6E6E6"/>
<path d="M478.962 150.195H415.177V155.165H478.962V150.195Z" fill="#E6E6E6"/>
<path d="M478.962 165.625H415.177V170.595H478.962V165.625Z" fill="#E6E6E6"/>
<path d="M478.962 181.055H415.177V186.026H478.962V181.055Z" fill="#E6E6E6"/>
<path d="M485.631 258.234V247.632H475V258.234H485.631Z" fill="#3F3D56"/>
<path d="M468.503 258.234V247.632H457.873V258.234H468.503Z" fill="#F0D43A"/>
<path d="M451.376 258.234V247.632H440.745V258.234H451.376Z" fill="#3F3D56"/>
<path d="M434.248 258.234V247.632H423.617V258.234H434.248Z" fill="#3F3D56"/>
<path d="M417.121 258.234V247.632H406.49V258.234H417.121Z" fill="#3F3D56"/>
<path d="M464.169 85.786H428.732V121.126H464.169V85.786Z" fill="#F0D43A"/>
<path d="M216.368 170.098L215.909 171.013L214.533 164.152C214.533 164.152 212.698 156.833 216.368 156.833C220.037 156.833 219.12 164.152 219.12 164.152V169.183L216.368 170.098Z" fill="#A0616A"/>
<path d="M276.549 169.162L277.008 170.076L278.384 163.215C278.384 163.215 280.219 155.896 276.549 155.896C272.88 155.896 273.797 163.215 273.797 163.215V168.247L276.549 169.162Z" fill="#A0616A"/>
<path d="M236.55 221.541L231.046 255.391L233.797 288.326L240.219 285.582L239.302 260.88L245.723 241.21L247.099 264.539L244.348 288.783L252.604 289.699L258.567 239.838L258.108 222.913L236.55 221.541Z" fill="#2F2E41"/>
<path d="M236.55 284.209L233.339 289.241V300.484C233.339 300.808 233.455 301.121 233.665 301.368C233.876 301.614 234.167 301.778 234.488 301.83C236.062 302.087 238.802 302.27 239.761 300.677C241.137 298.39 240.219 293.358 240.219 293.358C240.219 293.358 242.054 289.698 241.137 286.954C240.219 284.209 239.302 283.752 239.302 283.752L236.55 284.209Z" fill="#2F2E41"/>
<path d="M250.31 288.784L251.227 290.156C251.227 290.156 252.604 291.528 251.686 292.443C251.013 293.154 250.399 293.919 249.851 294.73C249.851 294.73 244.806 296.103 244.806 294.273V288.326L250.31 288.784Z" fill="#2F2E41"/>
<path d="M248.657 184.31C252.015 184.31 254.737 181.596 254.737 178.247C254.737 174.898 252.015 172.183 248.657 172.183C245.299 172.183 242.577 174.898 242.577 178.247C242.577 181.596 245.299 184.31 248.657 184.31Z" fill="#A0616A"/>
<path d="M244.577 180.143L244.118 188.834L252.374 189.292L251.915 180.6L244.577 180.143Z" fill="#A0616A"/>
<path d="M253.521 189.52L252.219 186.348C252.219 186.348 246.182 184.031 244.347 186.318L243.43 189.063L236.091 187.233L231.963 196.382L235.632 222.456C235.632 222.456 245.265 234.806 258.108 222.913L261.777 198.211L259.025 188.605L253.521 189.52Z" fill="#575A89"/>
<path d="M258.108 190.435L259.025 188.605L268.199 183.116L273.797 166.589L278.13 168.441L273.244 188.148L259.942 200.498L258.108 190.435Z" fill="#575A89"/>
<path d="M237.008 188.148L236.091 187.233L226.459 181.286L219.578 167.563L214.074 169.393L220.037 186.318L234.715 198.212L237.008 188.148Z" fill="#575A89"/>
<path d="M253.17 168.961L254.164 168.465L252.673 167.97V167.474C252.673 167.474 245.217 164.5 244.223 169.457C242.94 171.176 242.247 173.262 242.247 175.405C242.247 177.548 242.94 179.634 244.223 181.354V182.841L252.176 183.832L253.17 180.858C253.17 180.858 258.14 171.935 253.17 168.961Z" fill="#2F2E41"/>
<path d="M71.228 222.078L69.4609 222.959C69.4609 222.959 62.3921 226.19 64.4538 227.952C66.5155 229.715 72.1116 226.19 72.1116 226.19L73.2898 224.721L71.228 222.078Z" fill="#FFB8B8"/>
<path d="M122.932 221.639L117.47 258.207L109.223 283.761L104.805 281.705L108.928 246.751L97.1468 236.764L98.0305 222.078L122.932 221.639Z" fill="#2F2E41"/>
<path d="M104.216 282.586C104.216 282.586 109.223 279.943 109.517 283.761L108.928 287.58C108.928 287.58 110.695 294.336 104.805 292.867C98.9141 291.398 103.038 286.992 103.038 286.992L104.216 282.586Z" fill="#2F2E41"/>
<path d="M100.976 233.533L97.1469 236.764C97.1469 236.764 97.1469 256.738 99.7977 259.675C102.448 262.613 119.237 277.593 119.826 278.18C120.415 278.768 123.066 272.306 123.066 272.306L107.161 253.801L108.339 242.345L100.976 233.533Z" fill="#2F2E41"/>
<path d="M121.299 271.425C121.299 271.425 126.011 270.543 126.011 273.774C126.07 276.329 126.266 278.878 126.6 281.411C126.6 281.411 127.778 291.692 123.949 290.223C120.12 288.755 118.648 278.474 118.648 278.474C119.004 277.62 119.623 276.9 120.415 276.418C121.593 275.831 121.299 271.425 121.299 271.425Z" fill="#2F2E41"/>
<path d="M106.572 178.018L107.456 188.886L105.1 192.998L98.6197 186.83L98.0305 178.605L106.572 178.018Z" fill="#FFB8B8"/>
<path d="M101.27 181.543C105.174 181.543 108.339 178.386 108.339 174.493C108.339 170.6 105.174 167.444 101.27 167.444C97.3664 167.444 94.2016 170.6 94.2016 174.493C94.2016 178.386 97.3664 181.543 101.27 181.543Z" fill="#FFB8B8"/>
<path d="M104.216 188.592L107.161 180.074L112.462 185.949L122.182 223.252L114.819 227.659L111.579 222.959L110.99 229.127L96.5576 226.19L95.3798 186.83L98.3233 182.695L104.216 188.592Z" fill="#D0CDE1"/>
<path d="M100.092 230.302L98.3251 182.718L94.496 185.655L87.427 190.354L92.1399 207.098L93.6122 224.721L100.092 230.302Z" fill="#2F2E41"/>
<path d="M89.4892 190.648L87.4271 190.354L81.5365 207.684L69.7552 222.372L74.1735 227.071L87.7217 213.853L92.7291 202.985L89.4892 190.648Z" fill="#2F2E41"/>
<path d="M121.654 222.346L121.253 224.276C121.253 224.276 119.414 231.811 122.079 231.289C124.743 230.768 125.438 224.204 125.438 224.204L125.012 222.371L121.654 222.346Z" fill="#FFB8B8"/>
<path d="M106.701 179.597L121.298 185.361L119.531 202.985L123.066 222.372L119.531 226.19L106.463 182.094L106.701 179.597Z" fill="#2F2E41"/>
<path d="M101.64 162.653L103.715 161.619V162.653L105.099 161.964V163.688C105.099 163.688 110.286 167.482 109.248 171.965C108.211 176.448 108.211 176.793 108.211 176.793C108.211 176.793 106.899 168.267 101.712 169.647C96.5249 171.026 96.1074 171.275 94.7241 175.069L94.3488 176.696C94.3488 176.696 88.4994 163.343 101.64 162.653Z" fill="#2F2E41"/>
<path d="M119.237 185.361H121.593L125.422 205.922V223.84L120.71 222.959L116.881 195.935L119.237 185.361Z" fill="#2F2E41"/>
<path d="M89.0312 228.843H2.18779V289.028H89.0312V228.843Z" fill="#F0D43A"/>
<path d="M45.6095 240.587C41.9705 240.587 38.4133 241.663 35.3876 243.679C32.3618 245.695 30.0036 248.561 28.611 251.914C27.2184 255.267 26.8541 258.956 27.564 262.516C28.2739 266.075 30.0263 269.344 32.5994 271.911C35.1726 274.477 38.451 276.224 42.02 276.932C45.5891 277.64 49.2885 277.277 52.6505 275.888C56.0125 274.499 58.886 272.147 60.9077 269.13C62.9294 266.112 64.0085 262.565 64.0085 258.936C63.9942 254.074 62.0512 249.415 58.6038 245.977C55.1564 242.539 50.4848 240.601 45.6095 240.587V240.587ZM45.6095 246.091C46.7012 246.091 47.7684 246.414 48.6761 247.019C49.5838 247.624 50.2913 248.484 50.709 249.49C51.1268 250.495 51.2361 251.602 51.0231 252.67C50.8102 253.738 50.2845 254.719 49.5125 255.489C48.7406 256.258 47.7571 256.783 46.6863 256.995C45.6156 257.208 44.5058 257.099 43.4972 256.682C42.4886 256.265 41.6265 255.56 41.02 254.654C40.4135 253.749 40.0898 252.685 40.0898 251.596C40.0947 250.138 40.6778 248.74 41.7119 247.709C42.746 246.678 44.1471 246.096 45.6095 246.091V246.091ZM45.6095 272.592C43.429 272.582 41.2839 272.041 39.3601 271.018C37.4364 269.994 35.7922 268.517 34.5701 266.716C34.6585 263.047 41.9297 261.027 45.6095 261.027C49.2893 261.027 56.5605 263.047 56.6489 266.716C55.4254 268.516 53.7809 269.991 51.8575 271.015C49.9341 272.039 47.7896 272.58 45.6095 272.592V272.592Z" fill="white"/>
<path d="M284.806 56.1087H175.881V118.447H284.806V56.1087Z" fill="#E6E6E6"/>
<path d="M500.189 179.752L500.694 176.505C500.694 176.505 503.636 169.836 501.31 169.477C498.985 169.117 497.046 175.466 497.046 175.466L497.897 182.247L500.189 179.752Z" fill="#FFB8B8"/>
<path d="M523.997 198.155L503.214 193.992L500.799 178.896L494.681 178.425L494.98 197.943L513.037 207.385L523.997 198.155Z" fill="#575A89"/>
<path opacity="0.2" d="M523.997 198.155L503.214 193.992L500.799 178.896L494.681 178.425L494.98 197.943L513.037 207.385L523.997 198.155Z" fill="black"/>
<path d="M467.457 175.759H531.242V170.789H467.457V175.759Z" fill="#F0D43A"/>
<path d="M496.129 178.639L496.133 175.354C496.133 175.354 498.024 168.316 495.671 168.313C493.318 168.31 492.369 174.88 492.369 174.88L494.243 181.452L496.129 178.639Z" fill="#FFB8B8"/>
<path d="M523.182 188.048L526.033 187.355C527.121 187.356 528.196 187.116 529.18 186.652C530.164 186.189 531.032 185.513 531.721 184.673C532.411 183.834 532.905 182.852 533.167 181.799C533.429 180.745 533.454 179.647 533.238 178.584V178.584C533.24 177.327 532.993 176.082 532.512 174.921C532.032 173.759 531.326 172.703 530.436 171.814C529.546 170.924 528.489 170.218 527.326 169.735C526.162 169.253 524.915 169.004 523.655 169.002V169.002C522.395 169.001 521.147 169.247 519.982 169.726C518.817 170.206 517.758 170.909 516.866 171.797C515.974 172.684 515.266 173.738 514.782 174.898C514.299 176.059 514.049 177.303 514.047 178.56V178.56C513.678 179.84 513.653 181.194 513.974 182.487C514.295 183.78 514.951 184.966 515.875 185.926C516.8 186.887 517.962 187.589 519.244 187.961C520.526 188.333 521.884 188.363 523.182 188.048Z" fill="#2F2E41"/>
<path d="M506.41 235.439L508.732 260.785L512.935 285.664L519.994 285.673L519.084 261.267L515.356 231.696L506.41 235.439Z" fill="#2F2E41"/>
<path d="M513.878 284.258L509.169 287.068C509.169 287.068 501.638 287.997 503.047 290.345C504.456 292.694 520.929 291.306 520.93 290.368C520.931 289.429 520.467 284.266 519.526 284.265L513.878 284.258Z" fill="#2F2E41"/>
<path d="M527.247 233.25C527.247 233.25 527.115 236.873 523.814 242.501L524.262 259.866L541.177 281.476L535.052 286.631L514.376 263.139L509.235 234.973L515.831 228.411L527.247 233.25Z" fill="#2F2E41"/>
<path d="M539.765 281.474C539.765 281.474 545.411 282.42 544.467 284.765C543.523 287.111 541.156 297.902 535.04 296.486C535.04 296.486 532.216 296.483 533.16 294.607C533.727 293.478 534.357 292.382 535.046 291.324L535.054 285.223L539.765 281.474Z" fill="#2F2E41"/>
<path d="M520.126 188.525C524.024 188.525 527.185 185.373 527.185 181.485C527.185 177.597 524.024 174.445 520.126 174.445C516.227 174.445 513.067 177.597 513.067 181.485C513.067 185.373 516.227 188.525 520.126 188.525Z" fill="#FFB8B8"/>
<path d="M523.414 186.182L523.404 194.16L515.874 194.151L516.826 186.174L523.414 186.182Z" fill="#FFB8B8"/>
<path d="M513.995 191.333L516.277 190.774L523.407 191.345C523.407 191.345 527.167 195.104 526.696 196.042C526.224 196.98 523.842 219.974 523.842 219.974L528.057 236.405L512.996 237.325L505.468 236.377L506.917 206.811C506.917 206.811 503.633 198.829 507.871 196.488C510.265 195.235 512.355 193.476 513.995 191.333V191.333Z" fill="#575A89"/>
<path d="M522.464 193.221L501.288 192.256L496.601 177.701L490.482 178.162L493.752 197.409L513.039 204.003L522.464 193.221Z" fill="#575A89"/>
<path d="M533.752 176.298C536.267 176.298 538.306 174.265 538.306 171.756C538.306 169.248 536.267 167.214 533.752 167.214C531.237 167.214 529.198 169.248 529.198 171.756C529.198 174.265 531.237 176.298 533.752 176.298Z" fill="#2F2E41"/>
<path d="M529.55 169.315C529.55 168.643 529.7 167.98 529.989 167.373C530.278 166.766 530.698 166.23 531.219 165.805C531.741 165.379 532.351 165.074 533.004 164.912C533.658 164.75 534.34 164.735 535 164.868C534.418 164.593 533.783 164.445 533.139 164.433C532.494 164.422 531.855 164.547 531.262 164.8C530.67 165.053 530.138 165.429 529.702 165.902C529.266 166.376 528.936 166.936 528.734 167.546C528.531 168.156 528.461 168.802 528.528 169.442C528.594 170.081 528.796 170.699 529.12 171.255C529.444 171.81 529.883 172.291 530.407 172.665C530.931 173.039 531.529 173.297 532.161 173.424C531.38 173.057 530.719 172.475 530.257 171.748C529.794 171.02 529.549 170.176 529.55 169.315V169.315Z" fill="#2F2E41"/>
<path d="M525.643 171.891L519.503 170.763L514.781 173.715C513.62 174.44 512.692 175.483 512.107 176.718C511.522 177.954 511.305 179.331 511.481 180.686L516.211 179.49L517.269 176.842L518.531 178.904L523.647 187.825L528.827 185.016L532.128 179.857L525.643 171.891Z" fill="#2F2E41"/>
<path d="M176.189 55.5735L175.573 56.6439L284.498 118.982L285.114 117.912L176.189 55.5735Z" fill="white"/>
<path d="M284.5 55.5777L175.571 117.907L176.186 118.978L285.116 56.6482L284.5 55.5777Z" fill="white"/>
<path d="M429.445 85.2983L428.57 86.1711L463.847 121.352L464.722 120.479L429.445 85.2983Z" fill="white"/>
<path d="M463.847 85.2983L428.57 120.479L429.445 121.352L464.722 86.1711L463.847 85.2983Z" fill="white"/>
</svg>
